<?xml version="1.0" standalone="no"?>
<!DOCTYPE svg PUBLIC "-//W3C//DTD SVG 20010904//EN"
 "http://www.w3.org/TR/2001/REC-SVG-20010904/DTD/svg10.dtd">
<svg version="1.0" xmlns="http://www.w3.org/2000/svg"
 width="948.000000pt" height="277.000000pt" viewBox="0 0 948.000000 277.000000"
 preserveAspectRatio="xMidYMid meet">

<g transform="translate(0.000000,277.000000) scale(0.100000,-0.100000)"
fill="#000000" stroke="none">
<path d="M1741 2723 c-14 -12 -47 -90 -94 -220 -40 -111 -75 -205 -78 -208 -3
-3 -96 37 -205 90 -109 52 -207 95 -217 95 -25 0 -77 -53 -77 -78 0 -12 42
-110 94 -219 51 -109 91 -201 87 -205 -3 -4 -96 -39 -206 -77 -209 -74 -235
-89 -235 -141 0 -50 27 -68 200 -130 91 -33 171 -62 179 -65 10 -4 -171 -192
-536 -558 -497 -498 -552 -557 -567 -601 -34 -103 -12 -193 67 -274 65 -68
109 -87 197 -86 52 0 86 6 110 18 19 10 281 264 582 564 l546 545 14 -34 c8
-19 36 -96 63 -172 26 -76 57 -149 67 -163 24 -29 75 -33 107 -7 13 12 47 91
92 218 39 110 74 203 78 207 3 3 92 -35 196 -85 212 -101 243 -108 281 -63 13
15 24 35 24 44 0 10 -43 107 -95 217 -53 109 -92 202 -88 206 5 4 87 34 183
68 96 34 188 67 203 73 55 21 74 85 40 127 -12 13 -91 47 -218 91 -110 39
-203 75 -208 79 -4 4 34 93 84 197 103 212 110 242 64 281 -20 18 -36 23 -55
20 -15 -3 -106 -44 -203 -91 -97 -46 -185 -87 -194 -90 -15 -5 -29 25 -92 204
-51 146 -80 215 -94 225 -29 20 -70 19 -96 -2z m102 -457 c27 -74 58 -142 68
-152 30 -27 68 -21 175 30 54 27 114 55 132 62 l32 14 -14 -32 c-7 -18 -35
-78 -62 -133 -77 -162 -70 -175 129 -245 70 -24 127 -48 127 -51 0 -4 -61 -28
-134 -54 -74 -26 -143 -56 -152 -67 -29 -31 -19 -76 45 -207 34 -68 60 -126
58 -128 -2 -2 -61 24 -132 57 -194 92 -202 89 -271 -105 -26 -74 -51 -135 -55
-135 -3 0 -21 41 -39 91 l-32 91 70 72 c85 85 112 138 112 221 0 148 -127 275
-275 275 -82 0 -132 -26 -221 -111 l-73 -72 -91 33 c-49 18 -90 36 -90 40 0 4
60 29 134 55 74 25 142 55 150 64 28 31 18 77 -44 208 -33 69 -58 128 -56 130
2 2 64 -26 137 -62 188 -93 194 -90 264 111 26 74 50 134 54 134 3 0 28 -60
54 -134z m-142 -595 c32 -31 39 -46 39 -77 0 -36 -10 -47 -168 -206 l-167
-168 -78 78 -77 78 168 167 c159 157 171 167 206 167 31 0 46 -7 77 -39z
m-489 -488 c38 -37 68 -72 68 -78 0 -14 -869 -880 -898 -895 -33 -16 -74 -4
-110 33 -37 38 -48 77 -32 109 15 28 881 898 895 898 5 0 40 -30 77 -67z"/>
<path d="M8556 1938 c-58 -57 -68 -108 -34 -176 61 -123 225 -120 280 5 47
107 -24 213 -144 213 -54 0 -60 -3 -102 -42z"/>
<path d="M4761 1864 c5 -22 15 -142 21 -268 13 -251 0 -615 -25 -734 -8 -34
-12 -63 -11 -65 2 -2 29 0 61 4 32 4 104 8 161 8 56 1 102 5 102 10 0 5 -6 42
-14 83 -8 40 -19 147 -26 238 -12 161 -12 166 10 215 27 63 47 85 77 85 64 0
89 -191 59 -460 -9 -80 -19 -157 -22 -172 l-6 -28 162 0 163 0 -7 38 c-10 57
-25 323 -26 455 0 208 -45 327 -140 375 -79 40 -161 24 -232 -45 -21 -20 -40
-35 -42 -32 -6 5 11 250 20 292 l6 27 -120 0 c-66 0 -133 3 -150 6 l-30 6 9
-38z"/>
<path d="M3235 1820 c15 -47 26 -150 35 -323 15 -266 -4 -539 -46 -686 -7 -22
-5 -23 17 -16 13 5 164 9 334 10 l310 2 -2 24 c-2 13 -7 80 -13 149 -6 69 -13
140 -16 157 l-6 33 -43 -44 c-69 -72 -157 -104 -220 -80 -50 20 -64 146 -20
189 35 36 93 34 134 -4 l31 -29 0 129 0 130 -33 -25 c-42 -32 -87 -33 -122 -3
-28 24 -42 79 -31 122 8 32 60 65 103 65 44 0 119 -30 176 -69 l47 -32 0 162
0 162 -82 -9 c-99 -11 -467 -12 -521 -2 -34 6 -37 5 -32 -12z"/>
<path d="M9025 1751 c4 -47 8 -91 10 -98 2 -7 0 -15 -4 -17 -8 -5 -91 6 -141
19 l-25 6 0 -111 0 -112 40 6 c22 4 64 9 93 13 l52 6 0 -61 c0 -109 -21 -415
-35 -512 -7 -52 -13 -95 -12 -96 1 -1 29 2 62 7 33 4 108 8 168 8 l107 1 -6
28 c-3 15 -8 33 -10 41 -13 41 -34 312 -34 437 0 131 2 144 18 144 16 0 90
-15 123 -25 13 -4 15 11 16 111 l0 115 -26 -6 c-50 -13 -122 -22 -125 -16 -2
3 1 46 6 94 5 49 8 90 6 92 -2 1 -67 5 -146 7 l-143 4 6 -85z"/>
<path d="M4380 1645 c-19 -9 -56 -34 -82 -56 l-48 -40 6 44 6 45 -148 4 c-82
2 -150 4 -150 4 -1 -1 2 -26 7 -56 12 -87 9 -533 -5 -665 -7 -66 -12 -121 -11
-122 1 -2 75 0 164 4 l163 6 -7 41 c-28 166 -35 237 -35 348 0 76 5 138 12
155 20 47 59 83 90 83 48 0 53 -24 51 -235 -1 -160 -5 -208 -26 -305 -13 -63
-24 -116 -23 -117 0 0 77 1 170 4 l168 6 -6 46 c-3 25 -11 172 -16 326 -11
341 -27 412 -102 468 -37 27 -130 33 -178 12z"/>
<path d="M6775 1648 c-36 -13 -125 -76 -125 -89 0 -5 -4 -9 -9 -9 -5 0 -6 20
-3 45 l5 45 -115 0 c-64 0 -128 3 -144 6 l-29 6 3 -295 c3 -242 -6 -473 -21
-550 -1 -7 4 -11 12 -9 8 2 83 6 168 9 134 5 153 8 149 22 -47 174 -62 461
-27 536 25 54 53 77 88 73 22 -2 31 -11 40 -38 31 -90 3 -489 -42 -602 -6 -16
6 -17 167 -11 95 3 174 7 176 8 1 1 -2 24 -8 51 -7 27 -15 175 -20 329 -9 302
-18 359 -67 424 -43 55 -123 75 -198 49z"/>
<path d="M7381 1630 c-65 -30 -115 -74 -160 -141 -157 -235 -118 -556 83 -687
37 -24 50 -27 131 -27 74 0 97 4 132 23 61 32 120 98 143 159 24 66 26 168 4
221 l-15 37 -13 -30 c-41 -95 -166 -124 -236 -54 -39 39 -54 98 -46 178 11
109 50 166 119 178 29 4 37 2 46 -15 6 -11 8 -28 5 -36 -7 -18 -45 -21 -61 -5
-28 28 -35 -93 -8 -139 62 -104 219 -42 241 94 15 100 -59 224 -152 252 -63
19 -162 15 -213 -8z"/>
<path d="M8090 1623 c-184 -64 -290 -237 -290 -473 0 -189 58 -306 184 -373
34 -18 58 -21 141 -22 84 0 106 3 141 22 131 70 186 194 154 348 l-12 59 -19
-36 c-64 -125 -258 -127 -296 -3 -13 42 -15 41 72 49 91 8 181 57 220 120 26
42 30 61 33 130 3 71 1 85 -20 116 -36 54 -97 80 -188 80 -41 -1 -95 -8 -120
-17z m138 -185 c20 -20 13 -49 -21 -83 -30 -30 -112 -64 -124 -52 -11 11 23
92 50 118 30 31 74 38 95 17z"/>
<path d="M8510 1599 c6 -19 15 -109 22 -202 13 -185 1 -446 -26 -547 -8 -30
-14 -55 -13 -56 1 -1 29 2 62 7 33 4 106 8 163 8 56 1 102 3 102 5 0 2 -7 40
-15 83 -28 145 -38 362 -25 536 6 87 14 165 17 173 4 11 -14 14 -100 14 -57 0
-125 3 -150 6 l-46 7 9 -34z"/>
<path d="M5726 1605 c-107 -38 -179 -179 -193 -382 -16 -239 66 -419 206 -453
96 -23 170 22 222 135 l28 60 1 -86 0 -87 135 2 c96 1 135 4 135 13 0 6 -8 45
-17 85 -21 94 -25 537 -5 637 7 34 12 64 10 66 -2 1 -65 5 -141 8 l-139 5 7
-48 7 -49 -44 43 c-62 63 -132 80 -212 51z m231 -202 c15 -23 18 -49 18 -158
-1 -145 -17 -200 -60 -211 -68 -17 -99 39 -100 176 0 113 8 159 36 194 29 37
82 36 106 -1z"/>
</g>
</svg>
